# xmcd
#
# Track frame offsets: 
#        150
#        26739
#        45868
#        66270
#        81835
#        100588
#        121216
#        137831
#        152234
#        164163
#        184701
#        202022
#        222313
#        235327
#        256558
#        280861
#        293315
#        320392
#
# Disc length: 4545 seconds
#
# Revision: 0
# Processed by: cddbd v1.5.2PL0 Copyright (c) Steve Scherf et al.
# Submitted via: ExactAudioCopy v0.95b4
#
DISCID=fb11bf12
DTITLE=Rob Tognoni - Ironyard Revisited 
DYEAR=2008
DGENRE=Blues-Rock
TTITLE0=Words Of A Desperate Man 
TTITLE1=No Guarantee
TTITLE2=See Me In The Evening
TTITLE3=Shoot, Hoot, Electrocute
TTITLE4=The Ironyard
TTITLE5=The Real Thing
TTITLE6=Devil Outta Me
TTITLE7=Rock 'N Roll Business Man
TTITLE8=Blow Your Nuts Off With A Gun
TTITLE9=Mountain Man
TTITLE10=All Mine
TTITLE11=Can't Take Lovin'
TTITLE12=Lands Of Cirrus
TTITLE13=Silver Machine
TTITLE14=Hey Joe (Live Bonus Track)
TTITLE15=Guitar Boogie Refried (Live Bonus Rack)
TTITLE16=Crossword Blues (Live Bonus Track)
TTITLE17=The Good Die Young (Acoustic Instr Mental Bonus
EXTD=
EXTT0=
EXTT1=
EXTT2=
EXTT3=
EXTT4=
EXTT5=
EXTT6=
EXTT7=
EXTT8=
EXTT9=
EXTT10=
EXTT11=
EXTT12=
EXTT13=
EXTT14=
EXTT15=
EXTT16=
EXTT17=
PLAYORDER=
